<svg width="24" height="25" viewBox="0 0 24 25" fill="none" xmlns="http://www.w3.org/2000/svg">
<path d="M23.3461 21.1436C23.2467 21.1436 23.1487 21.121 23.0594 21.0775C22.9701 21.0341 22.8919 20.9709 22.8307 20.8928C21.8964 19.6996 21.0295 18.7787 19.8341 18.1615C18.7277 17.592 17.3381 17.2948 15.4989 17.2394V20.4913C15.4986 20.6186 15.4608 20.743 15.3904 20.8492C15.32 20.9554 15.2199 21.0387 15.1026 21.0888C14.9853 21.139 14.8558 21.1538 14.7301 21.1314C14.6045 21.1091 14.4881 21.0505 14.3954 20.963L7.20225 14.1142C7.13833 14.0533 7.08745 13.9801 7.05268 13.8991C7.01792 13.818 7 13.7307 7 13.6426C7 13.5544 7.01792 13.4671 7.05268 13.3861C7.08745 13.305 7.13833 13.2318 7.20225 13.1709L14.3954 6.32216C14.4881 6.23463 14.6045 6.17607 14.7301 6.1537C14.8558 6.13133 14.9853 6.14614 15.1026 6.19628C15.2199 6.24643 15.32 6.32973 15.3904 6.43591C15.4608 6.54209 15.4986 6.66651 15.4989 6.79382V10.0698C18.5291 10.2088 20.7868 11.3299 22.216 13.4073C23.4 15.1281 24 17.5113 24 20.4913C24 20.6643 23.9311 20.8302 23.8085 20.9525C23.6858 21.0748 23.5195 21.1436 23.3461 21.1436Z" fill="#505068"/>
</svg>
