<svg width="24" height="25" viewBox="0 0 24 25" fill="none" xmlns="http://www.w3.org/2000/svg">
<path d="M6.75 21.8936C6.55109 21.8936 6.36032 21.8145 6.21967 21.6739C6.07902 21.5332 6 21.3425 6 21.1436V18.1436H4.875C3.9802 18.1426 3.12233 17.7867 2.48961 17.1539C1.85689 16.5212 1.50099 15.6634 1.5 14.7686V5.76855C1.50099 4.87375 1.85689 4.01589 2.48961 3.38317C3.12233 2.75045 3.9802 2.39455 4.875 2.39355H19.125C20.0198 2.39455 20.8777 2.75045 21.5104 3.38317C22.1431 4.01589 22.499 4.87375 22.5 5.76855V14.7686C22.499 15.6634 22.1431 16.5212 21.5104 17.1539C20.8777 17.7867 20.0198 18.1426 19.125 18.1436H11.5191L7.23047 21.7196C7.09551 21.8319 6.92554 21.8934 6.75 21.8936Z" fill="#505068"/>
</svg>
