<svg width="24" height="25" viewBox="0 0 24 25" fill="none" xmlns="http://www.w3.org/2000/svg">
<path d="M12 21.0718C11.6912 21.0714 11.3897 20.9804 11.1347 20.8107C7.3565 18.3099 5.72053 16.5952 4.81817 15.5232C2.8952 13.238 1.97457 10.8919 2.00053 8.35131C2.03082 5.4399 4.42637 3.07178 7.34063 3.07178C9.45975 3.07178 10.9275 4.23568 11.7822 5.20506C11.8093 5.23546 11.8428 5.25983 11.8803 5.27654C11.9179 5.29324 11.9587 5.30189 12 5.30189C12.0413 5.30189 12.0821 5.29324 12.1197 5.27654C12.1572 5.25983 12.1907 5.23546 12.2178 5.20506C13.0725 4.23475 14.5402 3.07178 16.6594 3.07178C19.5736 3.07178 21.9692 5.4399 21.9995 8.35178C22.0254 10.8929 21.1038 13.239 19.1818 15.5237C18.2795 16.5957 16.6435 18.3104 12.8653 20.8112C12.6102 20.9807 12.3087 21.0715 12 21.0718Z" fill="#505068"/>
</svg>
