<svg width="164" height="24" viewBox="0 0 164 24" fill="none" xmlns="http://www.w3.org/2000/svg">
<path d="M12 20.6062C11.6912 20.6059 11.3897 20.5169 11.1347 20.3509C7.3565 17.9056 5.72053 16.2289 4.81817 15.1806C2.8952 12.9461 1.97457 10.6521 2.00053 8.16775C2.03082 5.32088 4.42637 3.00525 7.34063 3.00525C9.45975 3.00525 10.9275 4.14335 11.7822 5.09124C11.8093 5.12097 11.8428 5.1448 11.8803 5.16113C11.9179 5.17747 11.9587 5.18592 12 5.18592C12.0413 5.18592 12.0821 5.17747 12.1197 5.16113C12.1572 5.1448 12.1907 5.12097 12.2178 5.09124C13.0725 4.14244 14.5402 3.00525 16.6594 3.00525C19.5736 3.00525 21.9692 5.32088 21.9995 8.1682C22.0254 10.653 21.1038 12.9471 19.1818 15.1811C18.2795 16.2294 16.6435 17.906 12.8653 20.3514C12.6102 20.5172 12.3087 20.606 12 20.6062Z" fill="#505068"/>
<path d="M79.75 21.3396C79.5511 21.3396 79.3603 21.2623 79.2197 21.1248C79.079 20.9872 79 20.8007 79 20.6062V17.6727H77.875C76.9802 17.6717 76.1223 17.3237 75.4896 16.705C74.8569 16.0863 74.501 15.2475 74.5 14.3725V5.57204C74.501 4.69707 74.8569 3.85822 75.4896 3.23952C76.1223 2.62083 76.9802 2.27282 77.875 2.27185H92.125C93.0198 2.27282 93.8777 2.62083 94.5104 3.23952C95.1431 3.85822 95.499 4.69707 95.5 5.57204V14.3725C95.499 15.2475 95.1431 16.0863 94.5104 16.705C93.8777 17.3237 93.0198 17.6717 92.125 17.6727H84.5191L80.2305 21.1695C80.0955 21.2793 79.9255 21.3394 79.75 21.3396Z" fill="#505068"/>
<path d="M161 20.2395C160.886 20.2395 160.774 20.2141 160.671 20.1653C160.569 20.1165 160.479 20.0454 160.409 19.9576C159.337 18.616 158.343 17.5806 156.972 16.8866C155.703 16.2463 154.109 15.9121 152 15.8498V19.5061C152 19.6493 151.956 19.7892 151.876 19.9086C151.795 20.0279 151.68 20.1216 151.545 20.178C151.411 20.2344 151.262 20.251 151.118 20.2259C150.974 20.2007 150.841 20.1349 150.734 20.0365L142.484 12.336C142.411 12.2676 142.353 12.1853 142.313 12.0941C142.273 12.003 142.252 11.9048 142.252 11.8057C142.252 11.7066 142.273 11.6085 142.313 11.5173C142.353 11.4262 142.411 11.3439 142.484 11.2754L150.734 3.57496C150.841 3.47654 150.974 3.4107 151.118 3.38555C151.262 3.3604 151.411 3.37705 151.545 3.43343C151.68 3.48981 151.795 3.58347 151.876 3.70286C151.956 3.82224 152 3.96213 152 4.10528V7.78865C155.475 7.94495 158.065 9.20544 159.704 11.5412C161.062 13.476 161.75 16.1555 161.75 19.5061C161.75 19.7006 161.671 19.8872 161.53 20.0247C161.39 20.1622 161.199 20.2395 161 20.2395Z" fill="#505068"/>
</svg>
