<svg width="34" height="34" viewBox="0 0 34 34" fill="none" xmlns="http://www.w3.org/2000/svg">
<path d="M17.2266 15.3991C17.085 15.3849 16.915 15.3849 16.7591 15.3991C13.3875 15.2858 10.71 12.5233 10.71 9.12325C10.71 5.65242 13.515 2.83325 17 2.83325C20.4708 2.83325 23.29 5.65242 23.29 9.12325C23.2758 12.5233 20.5983 15.2858 17.2266 15.3991Z" stroke="white" stroke-width="1.5" stroke-linecap="round" stroke-linejoin="round"/>
<path d="M10.1435 20.6267C6.71518 22.9217 6.71518 26.6617 10.1435 28.9426C14.0393 31.5492 20.4285 31.5492 24.3243 28.9426C27.7527 26.6476 27.7527 22.9076 24.3243 20.6267C20.4427 18.0342 14.0535 18.0342 10.1435 20.6267Z" stroke="white" stroke-width="1.5" stroke-linecap="round" stroke-linejoin="round"/>
</svg>
