<svg width="20" height="19" viewBox="0 0 20 19" fill="none" xmlns="http://www.w3.org/2000/svg">
<path d="M10 18.0718C9.69122 18.0714 9.3897 17.9804 9.13466 17.8107C5.3565 15.3099 3.72053 13.5952 2.81817 12.5232C0.895198 10.238 -0.0254263 7.89193 0.000533826 5.35131C0.0308207 2.4399 2.42637 0.0717773 5.34063 0.0717773C7.45975 0.0717773 8.92746 1.23568 9.78222 2.20506C9.8093 2.23546 9.84275 2.25983 9.88033 2.27654C9.9179 2.29324 9.95871 2.30189 10 2.30189C10.0413 2.30189 10.0821 2.29324 10.1197 2.27654C10.1572 2.25983 10.1907 2.23546 10.2178 2.20506C11.0725 1.23475 12.5402 0.0717773 14.6594 0.0717773C17.5736 0.0717773 19.9692 2.4399 19.9995 5.35178C20.0254 7.89287 19.1038 10.239 17.1818 12.5237C16.2795 13.5957 14.6435 15.3104 10.8653 17.8112C10.6102 17.9807 10.3087 18.0715 10 18.0718Z" fill="#505068"/>
</svg>
